<svg width="32" height="32" viewBox="0 0 32 32" fill="none" xmlns="http://www.w3.org/2000/svg">
<circle cx="16" cy="16" r="16" fill="url(#paint0_linear_13850_842)"/>
<path fill-rule="evenodd" clip-rule="evenodd" d="M9.99326 12.1337C10.2041 11.7963 11.3667 10.5714 12.1952 10.6083C12.4431 10.6288 12.6622 10.7728 12.8402 10.9405H12.8409C13.249 11.3261 14.4198 12.7815 14.4855 13.0879C14.6478 13.8393 13.7187 14.2725 14.0028 15.0299C14.7272 16.7395 15.9754 17.9433 17.7488 18.6412C18.5334 18.9159 18.9826 18.0205 19.7618 18.1764C20.0795 18.2404 21.5892 19.3689 21.9884 19.7631V19.7631C22.1616 19.9341 22.3122 20.1461 22.3328 20.3851C22.3636 21.2271 21.0147 22.3635 20.7518 22.5088C20.1315 22.9373 19.3222 22.9294 18.3355 22.487C15.5824 21.3822 11.1826 17.2189 10.0159 14.4633C9.56943 13.5171 9.53931 12.7313 9.99326 12.1337Z" stroke="white" stroke-linecap="round" stroke-linejoin="round"/>
<path d="M17.7102 10.7683C20.1782 11.0326 22.1269 12.9101 22.4042 15.2899" stroke="white" stroke-linecap="round" stroke-linejoin="round"/>
<path d="M17.7102 13.0464C18.8902 13.2683 19.8122 14.1575 20.0422 15.2956" stroke="white" stroke-linecap="round" stroke-linejoin="round"/>
<defs>
<linearGradient id="paint0_linear_13850_842" x1="1.54839" y1="1.81818" x2="35.8145" y2="17.7432" gradientUnits="userSpaceOnUse">
<stop stop-color="#618967"/>
<stop offset="1" stop-color="#72A479"/>
</linearGradient>
</defs>
</svg>
